# xmcd
#
# Track frame offsets: 
#        150
#        18124
#        37942
#        54852
#        70225
#        83247
#        96937
#        111338
#        133099
#        152700
#        168099
#        183098
#
# Disc length: 2601 seconds
#
# Revision: 0
# Processed by: cddbd v1.5.2PL0 Copyright (c) Steve Scherf et al.
# Submitted via: ExactAudioCopy v0.99pb3
#
DISCID=8c0a270c
DTITLE=Alexis HK - Les affranchis
DYEAR=2009
DGENRE=Chanson
TTITLE0=Les affranchis
TTITLE1=Chicken manager
TTITLE2=La fille du fossoyeur
TTITLE3=Maudits anglois
TTITLE4=La maison Ronchonchon
TTITLE5=Zouzou
TTITLE6=C'est le printemps
TTITLE7=La c'est moi
TTITLE8=Thanks for the add
TTITLE9=La paix des etoiles
TTITLE10=Les sages
TTITLE11=Pardon vieux camarade
EXTD=
EXTT0=
EXTT1=
EXTT2=
EXTT3=
EXTT4=
EXTT5=
EXTT6=
EXTT7=
EXTT8=
EXTT9=
EXTT10=
EXTT11=
PLAYORDER=
